{
  "accessors": [
    {
      "bufferView": 2,
      "componentType": 5126,
      "count": 1682,
      "max": [
        2.6822528839111328,
        0.85089600086212158,
        4.6394400596618652
      ],
      "min": [
        0.789326012134552,
        -1.2016019821166992,
        2.5858759880065918
      ],
      "type": "VEC3"
    },
    {
      "bufferView": 2,
      "byteOffset": 20184,
      "componentType": 5126,
      "count": 1682,
      "max": [
        1,
        1,
        1
      ],
      "min": [
        -1,
        -1,
        -1
      ],
      "type": "VEC3"
    },
    {
      "bufferView": 3,
      "componentType": 5126,
      "count": 1682,
      "max": [
        1,
        1,
        0.99630898237228394,
        1
      ],
      "min": [
        -1,
        -1,
        -0.99997621774673462,
        -1
      ],
      "type": "VEC4"
    },
    {
      "bufferView": 1,
      "componentType": 5126,
      "count": 1682,
      "max": [
        0.83689999580383301,
        0.99980002641677856
      ],
      "min": [
        0.00019999999494757503,
        0.00019999999494757503
      ],
      "type": "VEC2"
    },
    {
      "bufferView": 0,
      "componentType": 5125,
      "count": 8850,
      "max": [
        1681
      ],
      "min": [
        0
      ],
      "type": "SCALAR"
    },
    {
      "bufferView": 2,
      "byteOffset": 40368,
      "componentType": 5126,
      "count": 152,
      "max": [
        2.0488519668579102,
        -0.25835898518562317,
        4.8329591751098633
      ],
      "min": [
        1.4179530143737793,
        -0.88925802707672119,
        3.9129440784454346
      ],
      "type": "VEC3"
    },
    {
      "bufferView": 2,
      "byteOffset": 42192,
      "componentType": 5126,
      "count": 152,
      "max": [
        0.99956309795379639,
        0.99956309795379639,
        0.93807250261306763
      ],
      "min": [
        -0.99956309795379639,
        -0.99956309795379639,
        -0.97868680953979492
      ],
      "type": "VEC3"
    },
    {
      "bufferView": 3,
      "byteOffset": 26912,
      "componentType": 5126,
      "count": 152,
      "max": [
        0.99999803304672241,
        0.99999856948852539,
        0.68464964628219604,
        1
      ],
      "min": [
        -0.99464243650436401,
        -0.99934899806976318,
        -0.65211158990859985,
        1
      ],
      "type": "VEC4"
    },
    {
      "bufferView": 1,
      "byteOffset": 13456,
      "componentType": 5126,
      "count": 152,
      "max": [
        0.2840999960899353,
        0.7434999942779541
      ],
      "min": [
        0.00019999999494757503,
        0.54269999265670776
      ],
      "type": "VEC2"
    },
    {
      "bufferView": 0,
      "byteOffset": 35400,
      "componentType": 5125,
      "count": 714,
      "max": [
        151
      ],
      "min": [
        0
      ],
      "type": "SCALAR"
    },
    {
      "bufferView": 2,
      "byteOffset": 44016,
      "componentType": 5126,
      "count": 7854,
      "max": [
        2.8306610584259033,
        0.52350699901580811,
        5.4881911277770996
      ],
      "min": [
        0.63603401184082031,
        -1.6712789535522461,
        3.6913459300994873
      ],
      "type": "VEC3"
    },
    {
      "bufferView": 2,
      "byteOffset": 138264,
      "componentType": 5126,
      "count": 7854,
      "max": [
        0.99995958805084229,
        0.99995636940002441,
        0.99996078014373779
      ],
      "min": [
        -0.99995636940002441,
        -0.99995636940002441,
        -0.98785680532455444
      ],
      "type": "VEC3"
    },
    {
      "bufferView": 3,
      "byteOffset": 29344,
      "componentType": 5126,
      "count": 7854,
      "max": [
        0.99998605251312256,
        0.99998569488525391,
        0.99580192565917969,
        1
      ],
      "min": [
        -1,
        -0.99919426441192627,
        -0.99448984861373901,
        -1
      ],
      "type": "VEC4"
    },
    {
      "bufferView": 1,
      "byteOffset": 14672,
      "componentType": 5126,
      "count": 7854,
      "max": [
        0.97130000591278076,
        0.99980002641677856
      ],
      "min": [
        0.00019999999494757503,
        0.00019999999494757503
      ],
      "type": "VEC2"
    },
    {
      "bufferView": 0,
      "byteOffset": 38256,
      "componentType": 5125,
      "count": 40788,
      "max": [
        7853
      ],
      "min": [
        0
      ],
      "type": "SCALAR"
    },
    {
      "bufferView": 2,
      "byteOffset": 232512,
      "componentType": 5126,
      "count": 986,
      "max": [
        2.9451909065246582,
        0.63798099756240845,
        6.6871089935302734
      ],
      "min": [
        0.52161401510238647,
        -1.7855960130691528,
        5.4462490081787109
      ],
      "type": "VEC3"
    },
    {
      "bufferView": 2,
      "byteOffset": 244344,
      "componentType": 5126,
      "count": 986,
      "max": [
        0.99999845027923584,
        0.99999845027923584,
        1
      ],
      "min": [
        -0.99999845027923584,
        -0.99999845027923584,
        -1
      ],
      "type": "VEC3"
    },
    {
      "bufferView": 3,
      "byteOffset": 155008,
      "componentType": 5126,
      "count": 986,
      "max": [
        0.99999845027923584,
        0.96383583545684814,
        0.99989521503448486,
        1
      ],
      "min": [
        -0.94766908884048462,
        -0.96327716112136841,
        -0.99989521503448486,
        1
      ],
      "type": "VEC4"
    },
    {
      "bufferView": 1,
      "byteOffset": 77504,
      "componentType": 5126,
      "count": 986,
      "max": [
        0.76579999923706055,
        0.99989998340606689
      ],
      "min": [
        9.9999997473787516e-05,
        9.9999997473787516e-05
      ],
      "type": "VEC2"
    },
    {
      "bufferView": 0,
      "byteOffset": 201408,
      "componentType": 5125,
      "count": 5472,
      "max": [
        985
      ],
      "min": [
        0
      ],
      "type": "SCALAR"
    },
    {
      "bufferView": 2,
      "byteOffset": 256176,
      "componentType": 5126,
      "count": 32,
      "max": [
        2.7138140201568604,
        0.39910998940467834,
        5.3506979942321777
      ],
      "min": [
        0.75299102067947388,
        -1.5617129802703857,
        3.7573111057281494
      ],
      "type": "VEC3"
    },
    {
      "bufferView": 2,
      "byteOffset": 256560,
      "componentType": 5126,
      "count": 32,
      "max": [
        0.95915347337722778,
        0.95915347337722778,
        -0.28288626670837402
      ],
      "min": [
        -0.95915347337722778,
        -0.95915347337722778,
        -0.2829081118106842
      ],
      "type": "VEC3"
    },
    {
      "bufferView": 3,
      "byteOffset": 170784,
      "componentType": 5126,
      "count": 32,
      "max": [
        1,
        1,
        0.95914703607559204,
        1
      ],
      "min": [
        -1,
        -1,
        -3.538404769187764e-07,
        1
      ],
      "type": "VEC4"
    },
    {
      "bufferView": 1,
      "byteOffset": 85392,
      "componentType": 5126,
      "count": 32,
      "max": [
        0.84839999675750732,
        0.99980002641677856
      ],
      "min": [
        0.00019999999494757503,
        0.00019999999494757503
      ],
      "type": "VEC2"
    },
    {
      "bufferView": 0,
      "byteOffset": 223296,
      "componentType": 5125,
      "count": 48,
      "max": [
        31
      ],
      "min": [
        0
      ],
      "type": "SCALAR"
    },
    {
      "bufferView": 2,
      "byteOffset": 256944,
      "componentType": 5126,
      "count": 4,
      "max": [
        2.2837760448455811,
        0.79447698593139648,
        4.368624210357666
      ],
      "min": [
        1.734794020652771,
        0.79127800464630127,
        3.5562520027160645
      ],
      "type": "VEC3"
    },
    {
      "bufferView": 2,
      "byteOffset": 256992,
      "componentType": 5126,
      "count": 4,
      "max": [
        0.018799878656864166,
        1,
        0.014299969188868999
      ],
      "min": [
        0,
        0.99975782632827759,
        -0.00039999998989515007
      ],
      "type": "VEC3"
    },
    {
      "bufferView": 3,
      "byteOffset": 171296,
      "componentType": 5126,
      "count": 4,
      "max": [
        -0.99982327222824097,
        0.018797881901264191,
        0.00034791833604685962,
        1
      ],
      "min": [
        -1,
        -7.5242917318973923e-07,
        5.2612162107834592e-05,
        1
      ],
      "type": "VEC4"
    },
    {
      "bufferView": 1,
      "byteOffset": 85648,
      "componentType": 5126,
      "count": 4,
      "max": [
        0.50019997358322144,
        0.76419997215270996
      ],
      "min": [
        0.41080000996589661,
        0.63190001249313354
      ],
      "type": "VEC2"
    },
    {
      "bufferView": 0,
      "byteOffset": 223488,
      "componentType": 5125,
      "count": 6,
      "max": [
        3
      ],
      "min": [
        0
      ],
      "type": "SCALAR"
    }
  ],
  "asset": {
    "extras": {
      "author": "bryanthealy (https://sketchfab.com/bryanthealy)",
      "license": "CC-BY-4.0 (http://creativecommons.org/licenses/by/4.0/)",
      "source": "https://sketchfab.com/models/2594d3763c9043929c2e3143a2141f3c",
      "title": "Wall Lamp"
    },
    "generator": "Sketchfab-4.1.5",
    "version": "2.0"
  },
  "bufferViews": [
    {
      "buffer": 0,
      "byteLength": 223512,
      "byteOffset": 0,
      "name": "floatBufferViews",
      "target": 34963
    },
    {
      "buffer": 0,
      "byteLength": 85680,
      "byteOffset": 223512,
      "byteStride": 8,
      "name": "floatBufferViews",
      "target": 34962
    },
    {
      "buffer": 0,
      "byteLength": 257040,
      "byteOffset": 309192,
      "byteStride": 12,
      "name": "floatBufferViews",
      "target": 34962
    },
    {
      "buffer": 0,
      "byteLength": 171360,
      "byteOffset": 566232,
      "byteStride": 16,
      "name": "floatBufferViews",
      "target": 34962
    }
  ],
  "buffers": [
    {
      "byteLength": 737592,
      "uri": "scene.bin"
    }
  ],
  "images": [
    {
      "uri": "textures/Material_metallicRoughness.png"
    },
    {
      "uri": "textures/Material_baseColor.png"
    },
    {
      "uri": "textures/Material.002_metallicRoughness.png"
    },
    {
      "uri": "textures/Material.002_baseColor.png"
    },
    {
      "uri": "textures/Material.003_metallicRoughness.png"
    },
    {
      "uri": "textures/Material.003_baseColor.png"
    },
    {
      "uri": "textures/Material_LAMPBASE_baseColor.png"
    },
    {
      "uri": "textures/Material.001_baseColor.png"
    },
    {
      "uri": "textures/Material.001_metallicRoughness.png"
    }
  ],
  "materials": [
    {
      "doubleSided": true,
      "name": "Material",
      "occlusionTexture": {
        "index": 0,
        "strength": 1,
        "texCoord": 0
      },
      "pbrMetallicRoughness": {
        "baseColorFactor": [
          1,
          1,
          1,
          1
        ],
        "baseColorTexture": {
          "index": 1,
          "texCoord": 0
        },
        "metallicFactor": 1,
        "metallicRoughnessTexture": {
          "index": 0,
          "texCoord": 0
        },
        "roughnessFactor": 0.59999999999999998
      }
    },
    {
      "alphaMode": "BLEND",
      "doubleSided": true,
      "emissiveFactor": [
        1,
        1,
        1
      ],
      "name": "Material.001",
      "pbrMetallicRoughness": {
        "baseColorFactor": [
          1,
          1,
          1,
          0.21512957320000001
        ],
        "baseColorTexture": {
          "index": 7,
          "texCoord": 0
        },
        "metallicFactor": 1,
        "metallicRoughnessTexture": {
          "index": 8,
          "texCoord": 0
        },
        "roughnessFactor": 0
      }
    },
    {
      "doubleSided": true,
      "name": "Material.002",
      "occlusionTexture": {
        "index": 2,
        "strength": 1,
        "texCoord": 0
      },
      "pbrMetallicRoughness": {
        "baseColorFactor": [
          1,
          1,
          1,
          1
        ],
        "baseColorTexture": {
          "index": 3,
          "texCoord": 0
        },
        "metallicFactor": 1,
        "metallicRoughnessTexture": {
          "index": 2,
          "texCoord": 0
        },
        "roughnessFactor": 0.59999999999999998
      }
    },
    {
      "doubleSided": true,
      "name": "Material.003",
      "occlusionTexture": {
        "index": 4,
        "strength": 1,
        "texCoord": 0
      },
      "pbrMetallicRoughness": {
        "baseColorFactor": [
          1,
          1,
          1,
          1
        ],
        "baseColorTexture": {
          "index": 5,
          "texCoord": 0
        },
        "metallicFactor": 1,
        "metallicRoughnessTexture": {
          "index": 4,
          "texCoord": 0
        },
        "roughnessFactor": 0.33708079270000002
      }
    },
    {
      "alphaMode": "BLEND",
      "doubleSided": true,
      "emissiveFactor": [
        0.84006533475598633,
        0.86122875771674812,
        0.55629982204244921
      ],
      "name": "Material.004",
      "pbrMetallicRoughness": {
        "baseColorFactor": [
          0.89375451419999996,
          0.93098142449999999,
          0.63645710470000005,
          0.38586128050000001
        ],
        "metallicFactor": 0.85537347559999999,
        "roughnessFactor": 0.23608993899999997
      }
    },
    {
      "doubleSided": true,
      "name": "Material_LAMPBASE",
      "pbrMetallicRoughness": {
        "baseColorFactor": [
          1,
          1,
          1,
          1
        ],
        "baseColorTexture": {
          "index": 6,
          "texCoord": 0
        },
        "metallicFactor": 0,
        "roughnessFactor": 0.59999999999999998
      }
    }
  ],
  "meshes": [
    {
      "primitives": [
        {
          "attributes": {
            "NORMAL": 1,
            "POSITION": 0,
            "TANGENT": 2,
            "TEXCOORD_0": 3
          },
          "indices": 4,
          "material": 0,
          "mode": 4
        }
      ]
    },
    {
      "primitives": [
        {
          "attributes": {
            "NORMAL": 6,
            "POSITION": 5,
            "TANGENT": 7,
            "TEXCOORD_0": 8
          },
          "indices": 9,
          "material": 1,
          "mode": 4
        }
      ]
    },
    {
      "primitives": [
        {
          "attributes": {
            "NORMAL": 11,
            "POSITION": 10,
            "TANGENT": 12,
            "TEXCOORD_0": 13
          },
          "indices": 14,
          "material": 2,
          "mode": 4
        }
      ]
    },
    {
      "primitives": [
        {
          "attributes": {
            "NORMAL": 16,
            "POSITION": 15,
            "TANGENT": 17,
            "TEXCOORD_0": 18
          },
          "indices": 19,
          "material": 3,
          "mode": 4
        }
      ]
    },
    {
      "primitives": [
        {
          "attributes": {
            "NORMAL": 21,
            "POSITION": 20,
            "TANGENT": 22,
            "TEXCOORD_0": 23
          },
          "indices": 24,
          "material": 4,
          "mode": 4
        }
      ]
    },
    {
      "primitives": [
        {
          "attributes": {
            "NORMAL": 26,
            "POSITION": 25,
            "TANGENT": 27,
            "TEXCOORD_0": 28
          },
          "indices": 29,
          "material": 5,
          "mode": 4
        }
      ]
    }
  ],
  "nodes": [
    {
      "children": [
        1
      ],
      "name": "RootNode (gltf orientation matrix)",
      "rotation": [
        -0.70710678118654746,
        -0,
        -0,
        0.70710678118654757
      ]
    },
    {
      "children": [
        2
      ],
      "name": "RootNode (model correction matrix)"
    },
    {
      "children": [
        3,
        4,
        5,
        6,
        7,
        8
      ],
      "name": "lampara.obj.cleaner.materialmerger.gles"
    },
    {
      "mesh": 0,
      "name": ""
    },
    {
      "mesh": 1,
      "name": ""
    },
    {
      "mesh": 2,
      "name": ""
    },
    {
      "mesh": 3,
      "name": ""
    },
    {
      "mesh": 4,
      "name": ""
    },
    {
      "mesh": 5,
      "name": ""
    }
  ],
  "samplers": [
    {
      "magFilter": 9729,
      "minFilter": 9987,
      "wrapS": 10497,
      "wrapT": 10497
    }
  ],
  "scene": 0,
  "scenes": [
    {
      "name": "OSG_Scene",
      "nodes": [
        0
      ]
    }
  ],
  "textures": [
    {
      "sampler": 0,
      "source": 0
    },
    {
      "sampler": 0,
      "source": 1
    },
    {
      "sampler": 0,
      "source": 2
    },
    {
      "sampler": 0,
      "source": 3
    },
    {
      "sampler": 0,
      "source": 4
    },
    {
      "sampler": 0,
      "source": 5
    },
    {
      "sampler": 0,
      "source": 6
    },
    {
      "sampler": 0,
      "source": 7
    },
    {
      "sampler": 0,
      "source": 8
    }
  ]
}

