{
  "accessors": [
    {
      "bufferView": 2,
      "componentType": 5126,
      "count": 6177,
      "max": [
        2.0189399719238281,
        2.168161153793335,
        1.1802805662155151
      ],
      "min": [
        -5.2973051071166992,
        -2.6675026416778564,
        -1.1650568246841431
      ],
      "type": "VEC3"
    },
    {
      "bufferView": 2,
      "byteOffset": 74124,
      "componentType": 5126,
      "count": 6177,
      "max": [
        0.99999970197677612,
        0.99979150295257568,
        1
      ],
      "min": [
        -0.99999970197677612,
        -0.99979150295257568,
        -1
      ],
      "type": "VEC3"
    },
    {
      "bufferView": 3,
      "componentType": 5126,
      "count": 6177,
      "max": [
        0.99979108572006226,
        1,
        1,
        1
      ],
      "min": [
        -0.99971634149551392,
        -1,
        -1,
        -1
      ],
      "type": "VEC4"
    },
    {
      "bufferView": 1,
      "componentType": 5126,
      "count": 6177,
      "max": [
        1,
        0.98929983377456665
      ],
      "min": [
        0,
        0
      ],
      "type": "VEC2"
    },
    {
      "bufferView": 0,
      "componentType": 5125,
      "count": 21273,
      "max": [
        6176
      ],
      "min": [
        0
      ],
      "type": "SCALAR"
    },
    {
      "bufferView": 2,
      "byteOffset": 148248,
      "componentType": 5126,
      "count": 20044,
      "max": [
        1.5233964920043945,
        2.7775328159332275,
        1.4515215158462524
      ],
      "min": [
        -5.3601055145263672,
        -2.7855932712554932,
        -1.4444141387939453
      ],
      "type": "VEC3"
    },
    {
      "bufferView": 2,
      "byteOffset": 388776,
      "componentType": 5126,
      "count": 20044,
      "max": [
        0.99999105930328369,
        0.99999105930328369,
        1
      ],
      "min": [
        -0.99999886751174927,
        -0.99999707937240601,
        -1
      ],
      "type": "VEC3"
    },
    {
      "bufferView": 3,
      "byteOffset": 98832,
      "componentType": 5126,
      "count": 20044,
      "max": [
        0.99997472763061523,
        0.99984347820281982,
        1,
        1
      ],
      "min": [
        -0.99988573789596558,
        -0.99981939792633057,
        -1,
        -1
      ],
      "type": "VEC4"
    },
    {
      "bufferView": 1,
      "byteOffset": 49416,
      "componentType": 5126,
      "count": 20044,
      "max": [
        0.99959444999694824,
        1
      ],
      "min": [
        0,
        0
      ],
      "type": "VEC2"
    },
    {
      "bufferView": 0,
      "byteOffset": 85092,
      "componentType": 5125,
      "count": 58653,
      "max": [
        20043
      ],
      "min": [
        0
      ],
      "type": "SCALAR"
    },
    {
      "bufferView": 2,
      "byteOffset": 629304,
      "componentType": 5126,
      "count": 5654,
      "max": [
        0.00846901535987854,
        2.3815951347351074,
        0.40689933300018311
      ],
      "min": [
        -4.3636918067932129,
        -2.22438645362854,
        -0.36425274610519409
      ],
      "type": "VEC3"
    },
    {
      "bufferView": 2,
      "byteOffset": 697152,
      "componentType": 5126,
      "count": 5654,
      "max": [
        0.99947637319564819,
        0.99999964237213135,
        0.99942886829376221
      ],
      "min": [
        -0.99982535839080811,
        -0.99998033046722412,
        -0.99942886829376221
      ],
      "type": "VEC3"
    },
    {
      "bufferView": 3,
      "byteOffset": 419536,
      "componentType": 5126,
      "count": 5654,
      "max": [
        0.99998027086257935,
        0.99997252225875854,
        0.99979370832443237,
        1
      ],
      "min": [
        -0.99895286560058594,
        -0.9999992847442627,
        -0.99979370832443237,
        1
      ],
      "type": "VEC4"
    },
    {
      "bufferView": 1,
      "byteOffset": 209768,
      "componentType": 5126,
      "count": 5654,
      "max": [
        0.987324059009552,
        1
      ],
      "min": [
        0,
        0
      ],
      "type": "VEC2"
    },
    {
      "bufferView": 0,
      "byteOffset": 319704,
      "componentType": 5125,
      "count": 17724,
      "max": [
        5653
      ],
      "min": [
        0
      ],
      "type": "SCALAR"
    },
    {
      "bufferView": 2,
      "byteOffset": 765000,
      "componentType": 5126,
      "count": 3708,
      "max": [
        -0.016541421413421631,
        2.516334056854248,
        0.38136798143386841
      ],
      "min": [
        -3.1866927146911621,
        0.70073807239532471,
        -0.34299382567405701
      ],
      "type": "VEC3"
    },
    {
      "bufferView": 2,
      "byteOffset": 809496,
      "componentType": 5126,
      "count": 3708,
      "max": [
        0.99998730421066284,
        0.99998724460601807,
        1
      ],
      "min": [
        -0.99998730421066284,
        -0.99998730421066284,
        -1
      ],
      "type": "VEC3"
    },
    {
      "bufferView": 3,
      "byteOffset": 510000,
      "componentType": 5126,
      "count": 3708,
      "max": [
        0.99682855606079102,
        0.99656057357788086,
        1,
        1
      ],
      "min": [
        -0.99185603857040405,
        -0.99762105941772461,
        -1,
        1
      ],
      "type": "VEC4"
    },
    {
      "bufferView": 1,
      "byteOffset": 255000,
      "componentType": 5126,
      "count": 3708,
      "max": [
        1,
        0.98137539625167847
      ],
      "min": [
        5.5511151231257827e-17,
        0
      ],
      "type": "VEC2"
    },
    {
      "bufferView": 0,
      "byteOffset": 390600,
      "componentType": 5125,
      "count": 10224,
      "max": [
        3707
      ],
      "min": [
        0
      ],
      "type": "SCALAR"
    },
    {
      "bufferView": 2,
      "byteOffset": 853992,
      "componentType": 5126,
      "count": 3004,
      "max": [
        0.16675695776939392,
        -0.31698763370513916,
        0.48018419742584229
      ],
      "min": [
        -1.2047287225723267,
        -1.1506149768829346,
        -0.44483885169029236
      ],
      "type": "VEC3"
    },
    {
      "bufferView": 2,
      "byteOffset": 890040,
      "componentType": 5126,
      "count": 3004,
      "max": [
        0.99852043390274048,
        0.99930626153945923,
        0.9997323751449585
      ],
      "min": [
        -0.99829757213592529,
        -0.99775528907775879,
        -0.99955213069915771
      ],
      "type": "VEC3"
    },
    {
      "bufferView": 3,
      "byteOffset": 569328,
      "componentType": 5126,
      "count": 3004,
      "max": [
        0.99957668781280518,
        0.99937456846237183,
        0.9986388087272644,
        1
      ],
      "min": [
        -0.99966925382614136,
        -0.99919462203979492,
        -0.99871104955673218,
        -1
      ],
      "type": "VEC4"
    },
    {
      "bufferView": 1,
      "byteOffset": 284664,
      "componentType": 5126,
      "count": 3004,
      "max": [
        0.99972826242446899,
        1
      ],
      "min": [
        0,
        0
      ],
      "type": "VEC2"
    },
    {
      "bufferView": 0,
      "byteOffset": 431496,
      "componentType": 5125,
      "count": 7173,
      "max": [
        3003
      ],
      "min": [
        0
      ],
      "type": "SCALAR"
    },
    {
      "bufferView": 2,
      "byteOffset": 926088,
      "componentType": 5126,
      "count": 3268,
      "max": [
        1.5910792350769043,
        2.5187463760375977,
        1.226207971572876
      ],
      "min": [
        -5.2254934310913086,
        -2.6379449367523193,
        -1.2227976322174072
      ],
      "type": "VEC3"
    },
    {
      "bufferView": 2,
      "byteOffset": 965304,
      "componentType": 5126,
      "count": 3268,
      "max": [
        0.99955415725708008,
        0.99957466125488281,
        0.99999874830245972
      ],
      "min": [
        -0.9993247389793396,
        -0.99977403879165649,
        -0.99999946355819702
      ],
      "type": "VEC3"
    },
    {
      "bufferView": 3,
      "byteOffset": 617392,
      "componentType": 5126,
      "count": 3268,
      "max": [
        0.99993020296096802,
        0.998615562915802,
        0.99999123811721802,
        1
      ],
      "min": [
        -0.99999254941940308,
        -0.99889403581619263,
        -0.99999082088470459,
        1
      ],
      "type": "VEC4"
    },
    {
      "bufferView": 1,
      "byteOffset": 308696,
      "componentType": 5126,
      "count": 3268,
      "max": [
        1,
        0.99546182155609131
      ],
      "min": [
        0,
        0
      ],
      "type": "VEC2"
    },
    {
      "bufferView": 0,
      "byteOffset": 460188,
      "componentType": 5125,
      "count": 9516,
      "max": [
        3267
      ],
      "min": [
        0
      ],
      "type": "SCALAR"
    },
    {
      "bufferView": 2,
      "byteOffset": 1004520,
      "componentType": 5126,
      "count": 7904,
      "max": [
        1.4760464429855347,
        3.8117411136627197,
        0.36218464374542236
      ],
      "min": [
        -6.9434876441955566,
        -2.0429668426513672,
        -0.29970765113830566
      ],
      "type": "VEC3"
    },
    {
      "bufferView": 2,
      "byteOffset": 1099368,
      "componentType": 5126,
      "count": 7904,
      "max": [
        0.99934256076812744,
        0.99934256076812744,
        0.99985229969024658
      ],
      "min": [
        -0.99934244155883789,
        -0.99934244155883789,
        -0.99985235929489136
      ],
      "type": "VEC3"
    },
    {
      "bufferView": 3,
      "byteOffset": 669680,
      "componentType": 5126,
      "count": 7904,
      "max": [
        0.99931067228317261,
        0.99933797121047974,
        1,
        1
      ],
      "min": [
        -0.99998986721038818,
        -0.99989205598831177,
        -1,
        -1
      ],
      "type": "VEC4"
    },
    {
      "bufferView": 1,
      "byteOffset": 334840,
      "componentType": 5126,
      "count": 7904,
      "max": [
        0.99526035785675049,
        1
      ],
      "min": [
        5.5511151231257827e-17,
        0
      ],
      "type": "VEC2"
    },
    {
      "bufferView": 0,
      "byteOffset": 498252,
      "componentType": 5125,
      "count": 23886,
      "max": [
        7903
      ],
      "min": [
        0
      ],
      "type": "SCALAR"
    }
  ],
  "asset": {
    "extras": {
      "author": "VladNeko (https://sketchfab.com/vlad.neko)",
      "license": "CC-BY-4.0 (http://creativecommons.org/licenses/by/4.0/)",
      "source": "https://sketchfab.com/3d-models/bicycle-1795f6e907634afda88fdaf45f67b279",
      "title": "Bicycle"
    },
    "generator": "Sketchfab-8.0.0",
    "version": "2.0"
  },
  "bufferViews": [
    {
      "buffer": 0,
      "byteLength": 593796,
      "byteOffset": 0,
      "name": "floatBufferViews",
      "target": 34963
    },
    {
      "buffer": 0,
      "byteLength": 398072,
      "byteOffset": 593796,
      "byteStride": 8,
      "name": "floatBufferViews",
      "target": 34962
    },
    {
      "buffer": 0,
      "byteLength": 1194216,
      "byteOffset": 991868,
      "byteStride": 12,
      "name": "floatBufferViews",
      "target": 34962
    },
    {
      "buffer": 0,
      "byteLength": 796144,
      "byteOffset": 2186084,
      "byteStride": 16,
      "name": "floatBufferViews",
      "target": 34962
    }
  ],
  "buffers": [
    {
      "byteLength": 2982228,
      "uri": "scene.bin"
    }
  ],
  "images": [
    {
      "uri": "textures/frame_baseColor.png"
    },
    {
      "uri": "textures/frame_normal.png"
    },
    {
      "uri": "textures/detail_baseColor.png"
    },
    {
      "uri": "textures/detail_normal.png"
    },
    {
      "uri": "textures/brake_baseColor.png"
    },
    {
      "uri": "textures/brake_normal.png"
    },
    {
      "uri": "textures/gear_baseColor.png"
    },
    {
      "uri": "textures/gear_normal.png"
    },
    {
      "uri": "textures/seater_baseColor.png"
    },
    {
      "uri": "textures/seater_normal.png"
    },
    {
      "uri": "textures/other_baseColor.png"
    },
    {
      "uri": "textures/other_normal.png"
    },
    {
      "uri": "textures/whell_baseColor.png"
    },
    {
      "uri": "textures/whell_normal.png"
    }
  ],
  "materials": [
    {
      "doubleSided": true,
      "emissiveFactor": [
        0,
        0,
        0
      ],
      "name": "frame",
      "normalTexture": {
        "index": 1,
        "scale": 1,
        "texCoord": 0
      },
      "pbrMetallicRoughness": {
        "baseColorFactor": [
          1,
          1,
          1,
          1
        ],
        "baseColorTexture": {
          "index": 0,
          "texCoord": 0
        },
        "metallicFactor": 0.69073932926829273,
        "roughnessFactor": 0.44340701219512191
      }
    },
    {
      "doubleSided": true,
      "emissiveFactor": [
        0,
        0,
        0
      ],
      "name": "detail",
      "normalTexture": {
        "index": 3,
        "scale": 1,
        "texCoord": 0
      },
      "pbrMetallicRoughness": {
        "baseColorFactor": [
          1,
          1,
          1,
          1
        ],
        "baseColorTexture": {
          "index": 2,
          "texCoord": 0
        },
        "metallicFactor": 0.58098323170731703,
        "roughnessFactor": 0.23608993902439024
      }
    },
    {
      "doubleSided": true,
      "emissiveFactor": [
        0,
        0,
        0
      ],
      "name": "brake",
      "normalTexture": {
        "index": 5,
        "scale": 1,
        "texCoord": 0
      },
      "pbrMetallicRoughness": {
        "baseColorFactor": [
          1,
          1,
          1,
          1
        ],
        "baseColorTexture": {
          "index": 4,
          "texCoord": 0
        },
        "metallicFactor": 1,
        "roughnessFactor": 0.37023628048780488
      }
    },
    {
      "doubleSided": true,
      "emissiveFactor": [
        0,
        0,
        0
      ],
      "name": "gear",
      "normalTexture": {
        "index": 7,
        "scale": 1,
        "texCoord": 0
      },
      "pbrMetallicRoughness": {
        "baseColorFactor": [
          1,
          1,
          1,
          1
        ],
        "baseColorTexture": {
          "index": 6,
          "texCoord": 0
        },
        "metallicFactor": 1,
        "roughnessFactor": 0.31535823170731703
      }
    },
    {
      "doubleSided": true,
      "emissiveFactor": [
        0,
        0,
        0
      ],
      "name": "seater",
      "normalTexture": {
        "index": 9,
        "scale": 1,
        "texCoord": 0
      },
      "pbrMetallicRoughness": {
        "baseColorFactor": [
          1,
          1,
          1,
          1
        ],
        "baseColorTexture": {
          "index": 8,
          "texCoord": 0
        },
        "metallicFactor": 1,
        "roughnessFactor": 0.80926067073170738
      }
    },
    {
      "doubleSided": true,
      "emissiveFactor": [
        0,
        0,
        0
      ],
      "name": "other",
      "normalTexture": {
        "index": 11,
        "scale": 1,
        "texCoord": 0
      },
      "pbrMetallicRoughness": {
        "baseColorFactor": [
          1,
          1,
          1,
          1
        ],
        "baseColorTexture": {
          "index": 10,
          "texCoord": 0
        },
        "metallicFactor": 1,
        "roughnessFactor": 0.4921875
      }
    },
    {
      "doubleSided": true,
      "emissiveFactor": [
        0,
        0,
        0
      ],
      "name": "whell",
      "normalTexture": {
        "index": 13,
        "scale": 1,
        "texCoord": 0
      },
      "pbrMetallicRoughness": {
        "baseColorFactor": [
          1,
          1,
          1,
          1
        ],
        "baseColorTexture": {
          "index": 12,
          "texCoord": 0
        },
        "metallicFactor": 0.64195884146341464,
        "roughnessFactor": 0.47389481707317072
      }
    }
  ],
  "meshes": [
    {
      "name": "rama_low_frame_0",
      "primitives": [
        {
          "attributes": {
            "NORMAL": 1,
            "POSITION": 0,
            "TANGENT": 2,
            "TEXCOORD_0": 3
          },
          "indices": 4,
          "material": 0,
          "mode": 4
        }
      ]
    },
    {
      "name": "rama_low_detail_0",
      "primitives": [
        {
          "attributes": {
            "NORMAL": 6,
            "POSITION": 5,
            "TANGENT": 7,
            "TEXCOORD_0": 8
          },
          "indices": 9,
          "material": 1,
          "mode": 4
        }
      ]
    },
    {
      "name": "rama_low_brake_0",
      "primitives": [
        {
          "attributes": {
            "NORMAL": 11,
            "POSITION": 10,
            "TANGENT": 12,
            "TEXCOORD_0": 13
          },
          "indices": 14,
          "material": 2,
          "mode": 4
        }
      ]
    },
    {
      "name": "rama_low_gear_0",
      "primitives": [
        {
          "attributes": {
            "NORMAL": 16,
            "POSITION": 15,
            "TANGENT": 17,
            "TEXCOORD_0": 18
          },
          "indices": 19,
          "material": 3,
          "mode": 4
        }
      ]
    },
    {
      "name": "rama_low_seater_0",
      "primitives": [
        {
          "attributes": {
            "NORMAL": 21,
            "POSITION": 20,
            "TANGENT": 22,
            "TEXCOORD_0": 23
          },
          "indices": 24,
          "material": 4,
          "mode": 4
        }
      ]
    },
    {
      "name": "rama_low_other_0",
      "primitives": [
        {
          "attributes": {
            "NORMAL": 26,
            "POSITION": 25,
            "TANGENT": 27,
            "TEXCOORD_0": 28
          },
          "indices": 29,
          "material": 5,
          "mode": 4
        }
      ]
    },
    {
      "name": "rama_low_whell_0",
      "primitives": [
        {
          "attributes": {
            "NORMAL": 31,
            "POSITION": 30,
            "TANGENT": 32,
            "TEXCOORD_0": 33
          },
          "indices": 34,
          "material": 6,
          "mode": 4
        }
      ]
    }
  ],
  "nodes": [
    {
      "children": [
        1
      ],
      "name": "RootNode (gltf orientation matrix)",
      "rotation": [
        -0.70710678118654746,
        -0,
        -0,
        0.70710678118654757
      ]
    },
    {
      "children": [
        2
      ],
      "name": "RootNode (model correction matrix)"
    },
    {
      "children": [
        3
      ],
      "matrix": [
        1,
        0,
        0,
        0,
        0,
        0,
        1,
        0,
        0,
        -1,
        0,
        0,
        0,
        0,
        0,
        1
      ],
      "name": "bicycle.fbx"
    },
    {
      "children": [
        4
      ],
      "name": "RootNode"
    },
    {
      "children": [
        5,
        6,
        7,
        8,
        9,
        10,
        11
      ],
      "matrix": [
        -89.843380623363103,
        43.910897943008656,
        -6.4722223669373328e-05,
        0,
        -43.910897942950768,
        -89.84338062337271,
        -8.686643013785939e-05,
        0,
        -9.6292463243756023e-05,
        -4.9623627880817925e-05,
        99.999999999941323,
        0,
        -486.02005004882812,
        460.64157104492188,
        -7.1075038909912109,
        1
      ],
      "name": "rama_low"
    },
    {
      "mesh": 0,
      "name": "rama_low_frame_0"
    },
    {
      "mesh": 1,
      "name": "rama_low_detail_0"
    },
    {
      "mesh": 2,
      "name": "rama_low_brake_0"
    },
    {
      "mesh": 3,
      "name": "rama_low_gear_0"
    },
    {
      "mesh": 4,
      "name": "rama_low_seater_0"
    },
    {
      "mesh": 5,
      "name": "rama_low_other_0"
    },
    {
      "mesh": 6,
      "name": "rama_low_whell_0"
    }
  ],
  "samplers": [
    {
      "magFilter": 9729,
      "minFilter": 9987,
      "wrapS": 10497,
      "wrapT": 10497
    }
  ],
  "scene": 0,
  "scenes": [
    {
      "name": "OSG_Scene",
      "nodes": [
        0
      ]
    }
  ],
  "textures": [
    {
      "sampler": 0,
      "source": 0
    },
    {
      "sampler": 0,
      "source": 1
    },
    {
      "sampler": 0,
      "source": 2
    },
    {
      "sampler": 0,
      "source": 3
    },
    {
      "sampler": 0,
      "source": 4
    },
    {
      "sampler": 0,
      "source": 5
    },
    {
      "sampler": 0,
      "source": 6
    },
    {
      "sampler": 0,
      "source": 7
    },
    {
      "sampler": 0,
      "source": 8
    },
    {
      "sampler": 0,
      "source": 9
    },
    {
      "sampler": 0,
      "source": 10
    },
    {
      "sampler": 0,
      "source": 11
    },
    {
      "sampler": 0,
      "source": 12
    },
    {
      "sampler": 0,
      "source": 13
    }
  ]
}

